<svg width="142" height="85" viewBox="0 0 142 85" fill="none" xmlns="http://www.w3.org/2000/svg">
    <g clip-path="url(#clip0)">
        <path d="M56.5113 53.7823C57.5808 53.7823 57.9528 54.2395 57.7668 55.2828L56.2788 63.7699C56.1044 64.7546 55.6045 65.2118 54.535 65.2118C53.4654 65.2118 53.1283 64.7546 53.291 63.7699L54.5582 56.5137H51.2217C50.3498 56.5137 50.0243 56.1269 50.1987 55.1422C50.3731 54.1575 50.8265 53.7706 51.6984 53.7706H56.5113V53.7823ZM52.1983 51.2034C51.1985 51.2034 50.8265 50.7462 51.0008 49.7029L53.198 37.1246C53.3724 36.1399 53.8723 35.6828 54.9767 35.6828C56.0811 35.6828 56.4183 36.1399 56.2439 37.1246L54.2908 48.3314H60.8359C61.7078 48.3314 62.0333 48.7182 61.8473 49.7732C61.6613 50.8165 61.2079 51.2151 60.336 51.2151H52.1983V51.2034ZM64.9048 53.7823C65.9743 53.7823 66.3463 54.2395 66.1603 55.2828L64.6723 63.7699C64.4979 64.7546 63.998 65.2118 62.9285 65.2118C61.8589 65.2118 61.5218 64.7546 61.6846 63.7699L62.9517 56.5137H59.8129C58.941 56.5137 58.6155 56.1269 58.7898 55.1422C58.9642 54.1575 59.4176 53.7706 60.2895 53.7706H64.9048V53.7823ZM69.8223 41.7668C70.6942 41.7668 71.0197 42.1536 70.8337 43.2086C70.6477 44.2519 70.1943 44.6505 69.3224 44.6505H68.032L66.9044 51.0862C66.73 52.0709 66.2301 52.528 65.1257 52.528C64.0213 52.528 63.6841 52.0709 63.8585 51.0862L66.3812 36.644C66.5556 35.6593 67.0555 35.2021 68.1599 35.2021C69.2643 35.2021 69.6014 35.6593 69.4271 36.644L68.5319 41.7668H69.8223Z"
              fill="#009EC0"/>
        <path d="M77.9599 53.3955L80.8779 62.0467C81.1801 62.9259 80.9709 63.5824 79.9014 64.0982C78.8783 64.5905 78.3435 64.3326 78.0413 63.4417L75.8209 56.8771L71.3102 63.4417C70.7057 64.3209 70.0779 64.5905 69.2176 64.0982C68.3341 63.5706 68.3574 62.9259 68.9619 62.0467L74.9141 53.3955L77.7623 37.1246C77.9367 36.14 78.4366 35.6828 79.541 35.6828C80.6454 35.6828 80.9825 36.14 80.8081 37.1246L77.9599 53.3955ZM90.7362 36.6323L85.993 63.7465C85.8187 64.7195 85.3188 65.1884 84.2144 65.1884C83.11 65.1884 82.7728 64.7312 82.9472 63.7465L87.6903 36.6323C87.8647 35.6476 88.3646 35.1904 89.469 35.1904C90.5734 35.2022 90.9106 35.6593 90.7362 36.6323Z"
              fill="#009EC0"/>
        <path d="M89.5268 63.2542C88.8642 63.2542 88.62 62.9611 88.7595 62.164C88.899 61.3668 89.2478 61.0738 89.9104 61.0738H98.6527C99.3154 61.0738 99.5595 61.3668 99.42 62.164C99.2805 62.9611 98.9317 63.2542 98.2691 63.2542H89.5268ZM91.5264 52.5046L92.747 45.5063C93.212 42.8687 95.0837 41.4385 97.7459 41.4385C100.408 41.4385 101.78 42.8804 101.315 45.5063L100.094 52.5046C99.6409 55.107 97.7576 56.5489 95.107 56.5489C92.4448 56.5489 91.073 55.107 91.5264 52.5046ZM97.8506 52.3522L99.0247 45.6235C99.2805 44.1582 98.6992 43.5134 97.3739 43.5134C96.0486 43.5134 95.2465 44.1582 94.9907 45.6235L93.8166 52.3522C93.5608 53.8175 94.1304 54.4623 95.4674 54.4623C96.7927 54.4623 97.5948 53.8175 97.8506 52.3522ZM100.071 62.9259L103.675 42.3177C103.803 41.5675 104.186 41.2275 105.023 41.2275C105.86 41.2275 106.116 41.5792 105.988 42.3177L102.384 62.9259C102.257 63.6762 101.873 64.0161 101.036 64.0161C100.199 64.0161 99.9431 63.6762 100.071 62.9259Z"
              fill="#009EC0"/>
        <path d="M127.426 62.4101C128.135 62.9962 128.181 63.6527 127.379 64.5319C126.577 65.4111 125.961 65.4462 125.217 64.825L120.032 60.4173L113.301 64.825C112.348 65.4462 111.743 65.4111 111.243 64.5319C110.755 63.6527 111.022 62.9962 111.941 62.4101L118.962 57.8032L119.497 54.767C119.672 53.7823 120.171 53.3252 121.276 53.3252C122.38 53.3252 122.717 53.7823 122.543 54.767L122.008 57.8032L127.426 62.4101ZM114.103 50.9689C113.103 50.9689 112.72 50.5118 112.906 49.4685L115.033 37.2888C115.219 36.2455 115.754 35.7883 116.754 35.7883H124.857C125.856 35.7883 126.228 36.2455 126.054 37.2888L123.926 49.4685C123.74 50.5118 123.206 50.9689 122.206 50.9689H114.103ZM117.777 38.4962L116.068 48.261H121.183L122.892 38.4962H117.777ZM132.274 42.0833C133.145 42.0833 133.471 42.4701 133.285 43.5251C133.099 44.5684 132.646 44.967 131.774 44.967H130.472L128.925 53.7823C128.751 54.767 128.251 55.2242 127.147 55.2242C126.042 55.2242 125.705 54.767 125.88 53.7823L128.879 36.6323C129.053 35.6476 129.553 35.1904 130.658 35.1904C131.762 35.1904 132.099 35.6476 131.925 36.6323L130.971 42.0833H132.274Z"
              fill="#009EC0"/>
        <path fill-rule="evenodd" clip-rule="evenodd"
              d="M80.041 20.8185C79.111 18.4154 78.6808 15.7426 78.7506 13.3044C78.8087 11.4053 79.1691 9.63521 79.855 8.2285C85.5863 7.24381 91.5501 7.05625 97.8511 7.73616C94.1077 13.4567 87.7603 17.8879 80.041 20.8185ZM76.9603 8.77946C76.7394 9.60004 76.6464 10.5261 76.6115 11.6984C76.5302 14.3359 77.0417 17.2314 78.0996 19.7986C78.3088 20.291 78.5297 20.7833 78.7855 21.2639C74.9607 22.612 70.8221 23.6084 66.5207 24.218C59.6501 25.191 52.3843 25.2027 45.2812 24.1594C45.3509 24.1008 45.4207 24.0539 45.4904 23.9953C54.0467 17.7355 62.6495 12.9527 71.7638 10.1393C73.4843 9.62348 75.2165 9.1663 76.9603 8.77946ZM43.7583 25.6013C51.8611 27.1604 60.9522 27.4065 68.8109 26.2812C72.8217 25.7185 76.6813 24.8159 80.2851 23.6084C81.3547 24.9917 82.68 26.2343 84.261 27.219C85.8072 28.1919 87.5045 28.7781 89.2948 28.8367L87.3766 27.0783C85.8653 27.0314 84.6098 26.6446 83.61 26.0116C82.7149 25.4606 81.9127 24.4994 81.2036 23.2802C89.9109 20.1972 97.0141 15.262 100.827 8.74429C100.943 8.54501 101.06 8.34573 101.164 8.14645L102.013 6.59907L98.8741 6.10673C88.2369 4.45385 78.5878 5.28615 69.4619 8.09956C60.336 10.9012 51.7333 15.6957 43.1654 21.9556C42.5608 22.3893 41.9214 22.8934 41.2472 23.4443C35.2136 22.19 29.4009 20.1386 24.1695 17.2431C23.7394 17.0087 23.3092 16.7625 22.8907 16.5046L24.5764 18.3216C25.0298 18.5912 25.4948 18.8608 25.9598 19.1187C30.2728 21.5218 34.9695 23.3506 39.8405 24.64C23.6696 37.7692 9.01004 57.5334 22.4025 66.5363C30.2263 71.788 39.515 63.4064 40.0846 53.9463C37.5271 58.0844 36.2831 58.225 33.8418 59.4794C34.5858 59.7607 35.574 60.1124 36.2366 60.171C35.0625 62.6913 33.7604 64.4849 31.1912 65.5868C23.9835 68.6815 19.1241 62.4569 20.2401 55.5875C22.17 43.7712 36.5738 31.5329 43.7583 25.6013Z"
              fill="#1E1916"/>
        <path fill-rule="evenodd" clip-rule="evenodd"
              d="M38.1079 22.038C48.2685 14.559 58.4523 8.82669 69.2523 5.4506C79.2152 2.33242 89.6897 1.20705 101.117 2.55514C100.641 3.41089 100.141 4.27835 99.6177 5.12237C99.5596 5.21615 99.5015 5.32166 99.4317 5.41544L102.745 5.84917C103.303 4.8762 103.849 3.91495 104.361 2.97715L105.21 1.42978L102.071 0.937436C90.3174 -0.891277 77.5063 -0.0589781 66.1367 3.58672C55.1158 -0.914722 40.7469 2.48481 40.7934 7.13865L43.9904 7.43171C45.3738 1.13672 55.174 1.61734 62.3236 4.9817C53.1279 8.47501 44.3275 13.6564 35.5504 20.1389C35.4109 20.2444 35.2597 20.3499 35.1086 20.4554C34.8993 20.6078 34.6785 20.7719 34.4576 20.936C35.655 21.3581 36.8756 21.7097 38.1079 22.038ZM2.27857 39.4225C14.9386 38.4612 27.0638 30.1499 35.4225 24.0191C34.2716 23.6322 33.1207 23.2102 31.993 22.7648C23.6925 28.7901 12.0788 36.4449 0 37.371L2.27857 39.4225Z"
              fill="#009EC0"/>
        <path d="M50.1634 72.1875H55.3715C55.7784 72.1875 55.9296 72.3751 55.8365 72.8674C55.7552 73.3598 55.5343 73.5473 55.1274 73.5473H53.2325L51.3608 84.25C51.2794 84.7189 51.0469 84.9299 50.5354 84.9299C50.0239 84.9299 49.8611 84.7189 49.9425 84.25L51.8142 73.5473H49.9192C49.5124 73.5473 49.3612 73.3598 49.4542 72.8674C49.5356 72.3633 49.7565 72.1875 50.1634 72.1875Z"
              fill="black"/>
        <path d="M59.8585 84.1328C59.8818 84.5783 59.7655 84.8596 59.2308 84.9651C58.696 85.0706 58.4519 84.8713 58.4402 84.4259L58.3705 81.929H55.6618L54.7085 84.4259C54.5341 84.8713 54.2319 85.0941 53.7436 84.9651C53.2553 84.8479 53.2088 84.5783 53.3948 84.1328L57.9404 72.5978C58.1031 72.1993 58.324 72.0586 58.7425 72.0586C59.161 72.0586 59.3354 72.1993 59.3586 72.5978L59.8585 84.1328ZM56.1617 80.5692H58.3356L58.2077 76.478C58.1845 75.927 58.1961 75.5871 58.231 75.0478H58.1961C58.045 75.5871 57.9404 75.927 57.7195 76.478L56.1617 80.5692Z"
              fill="black"/>
        <path d="M60.9284 81.5763C61.0098 81.1191 61.2423 80.8964 61.7538 80.8964C62.2653 80.8964 62.4281 81.1074 62.3467 81.5763L62.2886 81.9162C62.0793 83.0885 62.6025 83.6746 63.5441 83.6746C64.4742 83.6746 65.2182 83.0885 65.4158 81.9514C65.5669 81.1191 65.4623 80.6385 64.8927 80.0055L62.9047 77.7665C62.1491 76.9224 61.9863 76.3012 62.2304 74.9296C62.5327 73.2064 63.8115 72.1045 65.6134 72.1045C67.4154 72.1045 68.3222 73.1947 68.0199 74.9531L67.9501 75.3399C67.8688 75.8088 67.6363 76.0198 67.1247 76.0198C66.6132 76.0198 66.4505 75.8088 66.5318 75.3399L66.5667 75.1055C66.7644 73.9918 66.2877 73.4291 65.3693 73.4291C64.4509 73.4291 63.7999 74.0035 63.6022 75.082C63.4744 75.8323 63.579 76.1722 64.0905 76.7583L66.0785 78.9973C66.869 79.8765 67.0317 80.6619 66.7876 82.0921C66.4737 83.8856 65.0903 84.9875 63.3 84.9875C61.5097 84.9875 60.5099 83.8739 60.8354 82.0569L60.9284 81.5763Z"
              fill="black"/>
        <path d="M69.3919 72.1875H74.6C75.0069 72.1875 75.158 72.3751 75.065 72.8674C74.9837 73.3598 74.7628 73.5473 74.3559 73.5473H72.461L70.5893 84.25C70.5079 84.7189 70.2754 84.9299 69.7639 84.9299C69.2524 84.9299 69.0896 84.7189 69.171 84.25L71.0427 73.5473H69.1478C68.7409 73.5473 68.5897 73.3598 68.6827 72.8674C68.7641 72.3633 68.985 72.1875 69.3919 72.1875Z"
              fill="black"/>
        <path d="M74.4259 84.9182C73.9609 84.9182 73.7865 84.7072 73.8679 84.2031L75.8442 72.8791C75.9256 72.3868 76.1814 72.1641 76.6464 72.1641H80.4363C80.8431 72.1641 80.9943 72.3516 80.9013 72.844C80.8199 73.3363 80.599 73.5239 80.1921 73.5239H77.1346L76.4371 77.5213H79.1575C79.5643 77.5213 79.7155 77.7088 79.6225 78.2012C79.5411 78.6935 79.3202 78.8811 78.9133 78.8811H76.193L75.3792 83.5584H78.5994C79.0063 83.5584 79.1575 83.7459 79.0645 84.2383C78.9831 84.7306 78.7622 84.9182 78.3553 84.9182H74.4259Z"
              fill="black"/>
        <path d="M82.8074 82.0686L84.0397 75.0351C84.3536 73.2181 85.7253 72.1045 87.6552 72.1045C89.585 72.1045 90.5615 73.2181 90.2476 75.0351L89.0153 82.0686C88.7014 83.8856 87.2831 84.9993 85.3998 84.9993C83.5165 84.9993 82.4819 83.8856 82.8074 82.0686ZM87.6203 81.9045L88.7944 75.211C89.0037 74.0387 88.4224 73.4526 87.411 73.4526C86.3996 73.4526 85.6207 74.0387 85.4115 75.211L84.2373 81.9045C84.028 83.0768 84.6209 83.6629 85.6207 83.6629C86.6321 83.6512 87.4227 83.0768 87.6203 81.9045Z"
              fill="black"/>
        <path d="M90.2591 84.2383L92.247 72.8909C92.3284 72.3985 92.5841 72.1758 93.0492 72.1758H96.839C97.2459 72.1758 97.397 72.3633 97.304 72.8557C97.2227 73.348 97.0018 73.5356 96.5949 73.5356H93.5374L92.8399 77.533H95.5602C95.9671 77.533 96.1182 77.7205 96.0252 78.2129C95.9439 78.7052 95.723 78.8928 95.3161 78.8928H92.5958L91.6541 84.2383C91.5727 84.7072 91.3402 84.9182 90.8287 84.9182C90.3288 84.9182 90.1777 84.7072 90.2591 84.2383Z"
              fill="black"/>
        <path d="M98.7455 84.2383L100.733 72.8909C100.815 72.3985 101.071 72.1758 101.536 72.1758H105.325C105.732 72.1758 105.883 72.3633 105.79 72.8557C105.709 73.348 105.488 73.5356 105.081 73.5356H102.024L101.326 77.533H104.047C104.454 77.533 104.605 77.7205 104.512 78.2129C104.43 78.7052 104.209 78.8928 103.803 78.8928H101.082L100.152 84.2383C100.071 84.7072 99.8383 84.9182 99.3268 84.9182C98.8269 84.9182 98.6641 84.7072 98.7455 84.2383Z"
              fill="black"/>
        <path d="M104.93 84.2383L106.918 72.8557C106.999 72.3868 107.232 72.1758 107.743 72.1758C108.255 72.1758 108.418 72.3868 108.336 72.8557L106.348 84.2383C106.267 84.7072 106.034 84.9182 105.523 84.9182C105.011 84.9182 104.849 84.7072 104.93 84.2383Z"
              fill="black"/>
        <path d="M108.29 81.5763C108.371 81.1191 108.604 80.8964 109.115 80.8964C109.627 80.8964 109.789 81.1074 109.708 81.5763L109.65 81.9162C109.441 83.0885 109.964 83.6746 110.906 83.6746C111.836 83.6746 112.58 83.0885 112.777 81.9514C112.917 81.1191 112.824 80.6385 112.254 80.0055L110.266 77.7665C109.51 76.9224 109.348 76.3012 109.592 74.9296C109.894 73.2064 111.173 72.1045 112.975 72.1045C114.777 72.1045 115.684 73.1947 115.381 74.9531L115.312 75.3399C115.23 75.8088 114.998 76.0198 114.486 76.0198C113.975 76.0198 113.812 75.8088 113.893 75.3399L113.94 75.1055C114.137 73.9918 113.661 73.4291 112.742 73.4291C111.824 73.4291 111.173 74.0035 110.975 75.082C110.847 75.8323 110.952 76.1722 111.464 76.7583L113.451 78.9973C114.242 79.8765 114.416 80.6619 114.161 82.0921C113.847 83.8856 112.463 84.9875 110.673 84.9875C108.883 84.9875 107.883 83.8739 108.208 82.0569L108.29 81.5763Z"
              fill="black"/>
        <path d="M123.426 72.8674L121.438 84.25C121.357 84.7189 121.124 84.9299 120.613 84.9299C120.101 84.9299 119.938 84.7189 120.02 84.25L120.95 78.9045H117.602L116.672 84.25C116.59 84.7189 116.358 84.9299 115.846 84.9299C115.335 84.9299 115.172 84.7189 115.253 84.25L117.241 72.8674C117.323 72.3985 117.555 72.1875 118.067 72.1875C118.578 72.1875 118.741 72.3985 118.66 72.8674L117.846 77.5447H121.194L122.008 72.8674C122.089 72.3985 122.321 72.1875 122.833 72.1875C123.345 72.1875 123.507 72.3985 123.426 72.8674Z"
              fill="black"/>
        <path d="M123.241 84.2383L125.229 72.8557C125.31 72.3868 125.542 72.1758 126.054 72.1758C126.565 72.1758 126.728 72.3868 126.647 72.8557L124.659 84.2383C124.578 84.7072 124.345 84.9182 123.833 84.9182C123.322 84.9182 123.159 84.7072 123.241 84.2383Z"
              fill="black"/>
        <path d="M126.483 84.2148L128.483 72.7971C128.553 72.3868 128.797 72.1758 129.285 72.1758C129.762 72.1758 129.855 72.422 129.948 72.8088L131.354 79.7485C131.389 79.9126 131.599 81.0146 131.587 81.3545H131.599C131.645 80.8153 131.726 79.9361 131.901 78.928L132.947 72.9143C133.028 72.422 133.308 72.1992 133.761 72.1992C134.226 72.1992 134.4 72.4102 134.319 72.9143L132.319 84.3203C132.25 84.7423 131.994 84.9416 131.517 84.9416C131.041 84.9416 130.948 84.6954 130.855 84.3086L129.448 77.3689C129.413 77.2047 129.204 76.1028 129.215 75.7629H129.204C129.157 76.3021 129.076 77.1813 128.901 78.1894L127.844 84.2031C127.762 84.6954 127.495 84.9182 127.041 84.9182C126.588 84.9182 126.402 84.7071 126.483 84.2148Z"
              fill="black"/>
        <path d="M135.587 75.0351C135.901 73.2181 137.238 72.1045 139.109 72.1045C140.981 72.1045 141.923 73.2181 141.609 75.0351L141.551 75.3751C141.469 75.8323 141.237 76.055 140.725 76.055C140.214 76.055 140.051 75.844 140.132 75.3751L140.167 75.211C140.376 74.0387 139.83 73.4526 138.877 73.4526C137.923 73.4526 137.179 74.0387 136.97 75.211L135.796 81.9045C135.587 83.0768 136.156 83.6629 137.086 83.6629C138.04 83.6629 138.784 83.0768 138.993 81.9045L139.516 78.8918H138.563C138.156 78.8918 138.005 78.7043 138.098 78.2119C138.179 77.7196 138.4 77.532 138.807 77.532H140.493C140.958 77.532 141.132 77.743 141.051 78.2354L140.376 82.0569C140.063 83.8739 138.679 84.9875 136.854 84.9875C135.029 84.9875 134.041 83.8739 134.354 82.0569L135.587 75.0351Z"
              fill="black"/>
    </g>
    <defs>
        <clipPath id="clip0">
            <rect width="141.667" height="85" fill="white"/>
        </clipPath>
    </defs>
</svg>
